<svg width="24" height="24" viewBox="0 0 24 24" fill="none" xmlns="http://www.w3.org/2000/svg">
<path d="M8.85941 11.5585C9.62138 13.1321 10.8938 14.4012 12.4693 15.1591C12.5855 15.2141 12.714 15.238 12.8422 15.2282C12.9704 15.2185 13.0939 15.1755 13.2005 15.1036L15.5145 13.5578C15.6167 13.4885 15.7349 13.4462 15.8579 13.4348C15.9809 13.4235 16.1048 13.4435 16.2179 13.493L20.5498 15.3535C20.6978 15.4151 20.8215 15.5237 20.9018 15.6625C20.982 15.8013 21.0145 15.9627 20.994 16.1217C20.8567 17.1933 20.3337 18.1782 19.5227 18.892C18.7118 19.6059 17.6685 19.9998 16.5882 20C13.2496 20 10.0477 18.6737 7.68699 16.313C5.32625 13.9523 4 10.7504 4 7.41182C4.00024 6.33146 4.39413 5.2882 5.10797 4.47725C5.8218 3.66631 6.80666 3.14326 7.87827 3.00596C8.03732 2.98553 8.19868 3.01795 8.3375 3.09823C8.47632 3.17851 8.5849 3.3022 8.64652 3.45025L10.507 7.79132C10.5554 7.90271 10.5756 8.0243 10.5659 8.14536C10.5562 8.26642 10.5169 8.38323 10.4514 8.48552L8.90569 10.8365C8.83687 10.9429 8.79648 11.0651 8.78838 11.1915C8.78027 11.3179 8.80473 11.4443 8.85941 11.5585V11.5585Z" stroke="#304050" stroke-width="2" stroke-linecap="round" stroke-linejoin="round"/>
</svg>
