<svg width="24" height="24" viewBox="0 0 24 24" fill="none" xmlns="http://www.w3.org/2000/svg">
<path d="M4.78537 10.8298C4.56361 10.7673 4.36773 10.6354 4.22644 10.4534C4.08516 10.2715 4.00591 10.0491 4.00032 9.81881C3.99472 9.58855 4.06308 9.36255 4.19536 9.17396C4.32764 8.98537 4.51688 8.84411 4.73534 8.77088L19.2868 4.0268C19.3821 3.99574 19.4841 3.99159 19.5817 4.01481C19.6792 4.03803 19.7684 4.08772 19.8395 4.1584C19.9106 4.22908 19.9608 4.318 19.9845 4.41537C20.0083 4.51274 20.0046 4.61477 19.9741 4.71022L15.2319 19.2635C15.1589 19.4823 15.0177 19.6719 14.8289 19.8044C14.6402 19.9369 14.4138 20.0054 14.1832 19.9997C13.9526 19.994 13.7299 19.9145 13.5479 19.7728C13.3659 19.6312 13.2342 19.4349 13.1721 19.2128L11.5438 12.4503L4.78537 10.8298Z" stroke="#304050" stroke-width="2" stroke-linecap="round" stroke-linejoin="round"/>
<path d="M20 4L12 12" stroke="#304050" stroke-width="2" stroke-linecap="round" stroke-linejoin="round"/>
</svg>
