<svg width="24" height="24" viewBox="0 0 24 24" fill="none" xmlns="http://www.w3.org/2000/svg">
<path d="M14.6436 15.0569L12.6458 20.5508C12.5969 20.6827 12.5088 20.7964 12.3933 20.8767C12.2779 20.957 12.1406 21 12 21C11.8594 21 11.7221 20.957 11.6067 20.8767C11.4912 20.7964 11.4031 20.6827 11.3542 20.5508L9.35639 15.0569C9.3215 14.9622 9.26647 14.8763 9.19511 14.8049C9.12375 14.7335 9.03775 14.6785 8.94305 14.6436L3.44917 12.6458C3.31733 12.5969 3.20363 12.5088 3.12333 12.3933C3.04304 12.2779 3 12.1406 3 12C3 11.8594 3.04304 11.7221 3.12333 11.6067C3.20363 11.4912 3.31733 11.4031 3.44917 11.3542L8.94305 9.35639C9.03775 9.3215 9.12375 9.26647 9.19511 9.19511C9.26647 9.12375 9.3215 9.03775 9.35639 8.94305L11.3542 3.44917C11.4031 3.31733 11.4912 3.20363 11.6067 3.12333C11.7221 3.04304 11.8594 3 12 3C12.1406 3 12.2779 3.04304 12.3933 3.12333C12.5088 3.20363 12.5969 3.31733 12.6458 3.44917L14.6436 8.94305C14.6785 9.03775 14.7335 9.12375 14.8049 9.19511C14.8763 9.26647 14.9622 9.3215 15.0569 9.35639L20.5508 11.3542C20.6827 11.4031 20.7964 11.4912 20.8767 11.6067C20.957 11.7221 21 11.8594 21 12C21 12.1406 20.957 12.2779 20.8767 12.3933C20.7964 12.5088 20.6827 12.5969 20.5508 12.6458L15.0569 14.6436C14.9622 14.6785 14.8763 14.7335 14.8049 14.8049C14.7335 14.8763 14.6785 14.9622 14.6436 15.0569V15.0569Z" stroke="#304050" stroke-width="2" stroke-linecap="round" stroke-linejoin="round"/>
</svg>
