<svg width="24" height="24" viewBox="0 0 24 24" fill="none" xmlns="http://www.w3.org/2000/svg">
<g clip-path="url(#clip0_103_632)">
<path d="M12 3V4M12 20V21M21 12H20M4 12H3M18 18V18M6 6V6M18 6V6M6 18V18M16 12C16 14.2091 14.2091 16 12 16C9.79086 16 8 14.2091 8 12C8 9.79086 9.79086 8 12 8C14.2091 8 16 9.79086 16 12Z" stroke="#304050" stroke-width="2" stroke-linecap="round" stroke-linejoin="round"/>
<path d="M18.364 5.63603L17.6569 6.34313M6.34315 17.6568L5.63604 18.3639M18.364 18.3639L17.6569 17.6568M6.34315 6.34313L5.63604 5.63603" stroke="#304050" stroke-width="2" stroke-linecap="round" stroke-linejoin="round"/>
</g>
<defs>
<clipPath id="clip0_103_632">
<rect width="24" height="24" fill="white"/>
</clipPath>
</defs>
</svg>
