<svg width="24" height="24" viewBox="0 0 24 24" fill="none" xmlns="http://www.w3.org/2000/svg">
<path d="M17.5215 9.99804L11.679 15.8406L7.78113 11.9427L13.6236 6.10016C15.835 3.88878 18.0464 3.91459 18.9929 4.05226C19.139 4.07175 19.2745 4.13876 19.3787 4.24295C19.4829 4.34714 19.5499 4.48272 19.5694 4.62877C19.7071 5.57528 19.7329 7.78666 17.5215 9.99804Z" stroke="#304050" stroke-width="2" stroke-linecap="round" stroke-linejoin="round"/>
<path d="M16.5495 10.9703V16.5288C16.5469 16.7104 16.4727 16.8836 16.343 17.0107L13.5637 19.7986C13.4756 19.8867 13.3651 19.9491 13.2442 19.9794C13.1233 20.0096 12.9965 20.0064 12.8772 19.9702C12.758 19.934 12.6508 19.8661 12.5671 19.7737C12.4834 19.6814 12.4264 19.568 12.4021 19.4458L11.6793 15.8405" stroke="#304050" stroke-width="2" stroke-linecap="round" stroke-linejoin="round"/>
<path d="M12.6512 7.07248H7.09267C6.9111 7.07507 6.7379 7.14929 6.61081 7.27899L3.82292 10.0583C3.73485 10.1464 3.67236 10.2569 3.64214 10.3778C3.61191 10.4987 3.61507 10.6255 3.65129 10.7448C3.6875 10.864 3.75541 10.9712 3.84777 11.0549C3.94013 11.1386 4.05347 11.1956 4.17571 11.2199L7.78103 11.9427" stroke="#304050" stroke-width="2" stroke-linecap="round" stroke-linejoin="round"/>
<path d="M8.46101 17.484C7.16171 19.7298 3.89197 19.7298 3.89197 19.7298C3.89197 19.7298 3.89197 16.4601 6.13777 15.1608" stroke="#304050" stroke-width="2" stroke-linecap="round" stroke-linejoin="round"/>
</svg>
